<svg width="24" height="24" viewBox="0 0 24 24" fill="none" xmlns="http://www.w3.org/2000/svg">
<path fill-rule="evenodd" clip-rule="evenodd" d="M11.2929 8.29302C11.4804 8.10555 11.7347 8.00024 11.9999 8.00024C12.2651 8.00024 12.5194 8.10555 12.7069 8.29302L18.3639 13.95C18.4594 14.0423 18.5356 14.1526 18.588 14.2746C18.6404 14.3966 18.668 14.5278 18.6692 14.6606C18.6703 14.7934 18.645 14.9251 18.5947 15.048C18.5444 15.1709 18.4702 15.2825 18.3763 15.3764C18.2824 15.4703 18.1708 15.5446 18.0479 15.5948C17.925 15.6451 17.7933 15.6704 17.6605 15.6693C17.5277 15.6681 17.3965 15.6405 17.2745 15.5881C17.1525 15.5357 17.0421 15.4595 16.9499 15.364L11.9999 10.414L7.0499 15.364C6.8613 15.5462 6.6087 15.647 6.3465 15.6447C6.0843 15.6424 5.83349 15.5373 5.64808 15.3518C5.46267 15.1664 5.3575 14.9156 5.35523 14.6534C5.35295 14.3912 5.45374 14.1386 5.6359 13.95L11.2929 8.29302Z" fill="#100F0F"/>
</svg>
