<svg width="64" height="108" viewBox="0 0 64 108" fill="none" xmlns="http://www.w3.org/2000/svg">
<path d="M38 38V41H26V38H24.5V41C24.5 41.3978 24.658 41.7794 24.9393 42.0607C25.2206 42.342 25.6022 42.5 26 42.5H38C38.3978 42.5 38.7794 42.342 39.0607 42.0607C39.342 41.7794 39.5 41.3978 39.5 41V38H38Z" fill="black"/>
<path d="M35.75 35.75L34.6895 34.6895L32.75 36.629V30.5H31.25V36.629L29.3105 34.6895L28.25 35.75L32 39.5L35.75 35.75ZM41 23V21.5H36.5V29H38V26H40.25V24.5H38V23H41ZM32.75 29H29.75V21.5H32.75C33.3466 21.5006 33.9185 21.7378 34.3403 22.1597C34.7622 22.5815 34.9994 23.1534 35 23.75V26.75C34.9994 27.3466 34.7622 27.9185 34.3403 28.3403C33.9185 28.7622 33.3466 28.9994 32.75 29ZM31.25 27.5H32.75C32.9489 27.4998 33.1395 27.4207 33.2801 27.2801C33.4207 27.1395 33.4998 26.9489 33.5 26.75V23.75C33.4998 23.5511 33.4207 23.3605 33.2801 23.2199C33.1395 23.0793 32.9489 23.0002 32.75 23H31.25V27.5ZM26.75 21.5H23V29H24.5V26.75H26.75C27.1476 26.7494 27.5288 26.5912 27.81 26.31C28.0912 26.0288 28.2494 25.6476 28.25 25.25V23C28.2496 22.6023 28.0914 22.221 27.8102 21.9398C27.529 21.6586 27.1477 21.5004 26.75 21.5ZM24.5 25.25V23H26.75L26.7508 25.25H24.5Z" fill="#100F0F"/>
<path d="M38 82V85H26V82H24.5V85C24.5 85.3978 24.658 85.7794 24.9393 86.0607C25.2206 86.342 25.6022 86.5 26 86.5H38C38.3978 86.5 38.7794 86.342 39.0607 86.0607C39.342 85.7794 39.5 85.3978 39.5 85V82H38Z" fill="#5A5858" fill-opacity="0.8"/>
<path d="M35.75 79.75L34.6895 78.6895L32.75 80.629V74.5H31.25V80.629L29.3105 78.6895L28.25 79.75L32 83.5L35.75 79.75ZM41 67V65.5H36.5V73H38V70H40.25V68.5H38V67H41ZM32.75 73H29.75V65.5H32.75C33.3466 65.5006 33.9185 65.7378 34.3403 66.1597C34.7622 66.5815 34.9994 67.1534 35 67.75V70.75C34.9994 71.3466 34.7622 71.9185 34.3403 72.3403C33.9185 72.7622 33.3466 72.9994 32.75 73ZM31.25 71.5H32.75C32.9489 71.4998 33.1395 71.4207 33.2801 71.2801C33.4207 71.1395 33.4998 70.9489 33.5 70.75V67.75C33.4998 67.5511 33.4207 67.3605 33.2801 67.2199C33.1395 67.0793 32.9489 67.0002 32.75 67H31.25V71.5ZM26.75 65.5H23V73H24.5V70.75H26.75C27.1476 70.7494 27.5288 70.5912 27.81 70.31C28.0912 70.0288 28.2494 69.6476 28.25 69.25V67C28.2496 66.6023 28.0914 66.221 27.8102 65.9398C27.529 65.6586 27.1477 65.5004 26.75 65.5ZM24.5 69.25V67H26.75L26.7508 69.25H24.5Z" fill="#5A5858" fill-opacity="0.8"/>
<rect x="0.5" y="0.5" width="63" height="107" rx="4.5" stroke="#9747FF" stroke-dasharray="10 5"/>
</svg>
