<svg width="64" height="112" viewBox="0 0 64 112" fill="none" xmlns="http://www.w3.org/2000/svg">
<path d="M34.74 29L34.394 38M29.606 38L29.26 29M39.228 25.79C39.57 25.842 39.91 25.897 40.25 25.956M39.228 25.79L38.16 39.673C38.1164 40.2383 37.8611 40.7662 37.445 41.1513C37.029 41.5364 36.4829 41.7502 35.916 41.75H28.084C27.5171 41.7502 26.971 41.5364 26.555 41.1513C26.1389 40.7662 25.8836 40.2383 25.84 39.673L24.772 25.79M39.228 25.79C38.0739 25.6155 36.9138 25.4831 35.75 25.393M24.772 25.79C24.43 25.841 24.09 25.896 23.75 25.955M24.772 25.79C25.9261 25.6156 27.0862 25.4831 28.25 25.393M35.75 25.393V24.477C35.75 23.297 34.84 22.313 33.66 22.276C32.5536 22.2407 31.4464 22.2407 30.34 22.276C29.16 22.313 28.25 23.298 28.25 24.477V25.393M35.75 25.393C33.2537 25.2001 30.7463 25.2001 28.25 25.393" stroke="#100F0F" stroke-width="1.5" stroke-linecap="round" stroke-linejoin="round"/>
<path d="M34.74 73L34.394 82M29.606 82L29.26 73M39.228 69.79C39.57 69.842 39.91 69.897 40.25 69.956M39.228 69.79L38.16 83.673C38.1164 84.2383 37.8611 84.7662 37.445 85.1513C37.029 85.5364 36.4829 85.7502 35.916 85.75H28.084C27.5171 85.7502 26.971 85.5364 26.555 85.1513C26.1389 84.7662 25.8836 84.2383 25.84 83.673L24.772 69.79M39.228 69.79C38.0739 69.6155 36.9138 69.4831 35.75 69.393M24.772 69.79C24.43 69.841 24.09 69.896 23.75 69.955M24.772 69.79C25.9261 69.6156 27.0862 69.4831 28.25 69.393M35.75 69.393V68.477C35.75 67.297 34.84 66.313 33.66 66.276C32.5536 66.2407 31.4464 66.2407 30.34 66.276C29.16 66.313 28.25 67.298 28.25 68.477V69.393M35.75 69.393C33.2537 69.2001 30.7463 69.2001 28.25 69.393" stroke="#5A5858" stroke-opacity="0.8" stroke-width="1.5" stroke-linecap="round" stroke-linejoin="round"/>
<rect x="0.5" y="0.5" width="63" height="111" rx="4.5" stroke="#9747FF" stroke-dasharray="10 5"/>
</svg>
