<svg width="64" height="118" viewBox="0 0 64 118" fill="none" xmlns="http://www.w3.org/2000/svg">
<path d="M27 41C26.45 41 25.979 40.804 25.587 40.412C25.195 40.02 24.9993 39.5493 25 39V26H24V24H29V23H35V24H40V26H39V39C39 39.55 38.804 40.021 38.412 40.413C38.02 40.805 37.5493 41.0007 37 41H27ZM29 37H31V28H29V37ZM33 37H35V28H33V37Z" fill="#100F0F"/>
<path d="M27 85C26.45 85 25.979 84.804 25.587 84.412C25.195 84.02 24.9993 83.5493 25 83V70H24V68H29V67H35V68H40V70H39V83C39 83.55 38.804 84.021 38.412 84.413C38.02 84.805 37.5493 85.0007 37 85H27ZM29 81H31V72H29V81ZM33 81H35V72H33V81Z" fill="#5A5858" fill-opacity="0.8"/>
<rect x="0.5" y="0.5" width="63" height="117" rx="4.5" stroke="#9747FF" stroke-dasharray="10 5"/>
</svg>
