<svg width="64" height="115" viewBox="0 0 64 115" fill="none" xmlns="http://www.w3.org/2000/svg">
<g clip-path="url(#clip0_69_2075)">
<path d="M26 40C25.45 40 24.979 39.804 24.587 39.412C24.195 39.02 23.9993 38.5493 24 38V35H26V38H38V35H40V38C40 38.55 39.804 39.021 39.412 39.413C39.02 39.805 38.5493 40.0007 38 40H26ZM32 36L27 31L28.4 29.55L31 32.15V24H33V32.15L35.6 29.55L37 31L32 36Z" fill="#100F0F"/>
<path d="M26 84C25.45 84 24.979 83.804 24.587 83.412C24.195 83.02 23.9993 82.5493 24 82V79H26V82H38V79H40V82C40 82.55 39.804 83.021 39.412 83.413C39.02 83.805 38.5493 84.0007 38 84H26ZM32 80L27 75L28.4 73.55L31 76.15V68H33V76.15L35.6 73.55L37 75L32 80Z" fill="#5A5858" fill-opacity="0.8"/>
</g>
<rect x="0.5" y="0.5" width="63" height="114" rx="4.5" stroke="#9747FF" stroke-dasharray="10 5"/>
<defs>
<clipPath id="clip0_69_2075">
<rect width="64" height="115" rx="5" fill="white"/>
</clipPath>
</defs>
</svg>
