<svg width="64" height="155" viewBox="0 0 64 155" fill="none" xmlns="http://www.w3.org/2000/svg">
<path d="M38 29.998H33V34.998C33 35.2633 32.8946 35.5176 32.7071 35.7052C32.5196 35.8927 32.2652 35.998 32 35.998C31.7348 35.998 31.4804 35.8927 31.2929 35.7052C31.1054 35.5176 31 35.2633 31 34.998V29.998H26C25.7348 29.998 25.4804 29.8927 25.2929 29.7052C25.1054 29.5176 25 29.2633 25 28.998C25 28.7328 25.1054 28.4785 25.2929 28.2909C25.4804 28.1034 25.7348 27.998 26 27.998H31V22.998C31 22.7328 31.1054 22.4785 31.2929 22.2909C31.4804 22.1034 31.7348 21.998 32 21.998C32.2652 21.998 32.5196 22.1034 32.7071 22.2909C32.8946 22.4785 33 22.7328 33 22.998V27.998H38C38.2652 27.998 38.5196 28.1034 38.7071 28.2909C38.8946 28.4785 39 28.7328 39 28.998C39 29.2633 38.8946 29.5176 38.7071 29.7052C38.5196 29.8927 38.2652 29.998 38 29.998Z" fill="#100F0F"/>
<path d="M38 76.998H33V81.998C33 82.2633 32.8946 82.5176 32.7071 82.7052C32.5196 82.8927 32.2652 82.998 32 82.998C31.7348 82.998 31.4804 82.8927 31.2929 82.7052C31.1054 82.5176 31 82.2633 31 81.998V76.998H26C25.7348 76.998 25.4804 76.8927 25.2929 76.7052C25.1054 76.5176 25 76.2633 25 75.998C25 75.7328 25.1054 75.4785 25.2929 75.2909C25.4804 75.1034 25.7348 74.998 26 74.998H31V69.998C31 69.7328 31.1054 69.4785 31.2929 69.2909C31.4804 69.1034 31.7348 68.998 32 68.998C32.2652 68.998 32.5196 69.1034 32.7071 69.2909C32.8946 69.4785 33 69.7328 33 69.998V74.998H38C38.2652 74.998 38.5196 75.1034 38.7071 75.2909C38.8946 75.4785 39 75.7328 39 75.998C39 76.2633 38.8946 76.5176 38.7071 76.7052C38.5196 76.8927 38.2652 76.998 38 76.998Z" fill="#5A5858" fill-opacity="0.8"/>
<path d="M38 123.998H33V128.998C33 129.263 32.8946 129.518 32.7071 129.705C32.5196 129.893 32.2652 129.998 32 129.998C31.7348 129.998 31.4804 129.893 31.2929 129.705C31.1054 129.518 31 129.263 31 128.998V123.998H26C25.7348 123.998 25.4804 123.893 25.2929 123.705C25.1054 123.518 25 123.263 25 122.998C25 122.733 25.1054 122.478 25.2929 122.291C25.4804 122.103 25.7348 121.998 26 121.998H31V116.998C31 116.733 31.1054 116.478 31.2929 116.291C31.4804 116.103 31.7348 115.998 32 115.998C32.2652 115.998 32.5196 116.103 32.7071 116.291C32.8946 116.478 33 116.733 33 116.998V121.998H38C38.2652 121.998 38.5196 122.103 38.7071 122.291C38.8946 122.478 39 122.733 39 122.998C39 123.263 38.8946 123.518 38.7071 123.705C38.5196 123.893 38.2652 123.998 38 123.998Z" fill="#2196F3"/>
<rect x="0.5" y="0.5" width="63" height="154" rx="4.5" stroke="#9747FF" stroke-dasharray="10 5"/>
</svg>
