<svg width="64" height="108" viewBox="0 0 64 108" fill="none" xmlns="http://www.w3.org/2000/svg">
<path fill-rule="evenodd" clip-rule="evenodd" d="M32.7071 35.7071C32.5196 35.8946 32.2653 35.9999 32.0001 35.9999C31.7349 35.9999 31.4806 35.8946 31.2931 35.7071L25.6361 30.0501C25.5406 29.9579 25.4644 29.8475 25.412 29.7255C25.3596 29.6035 25.332 29.4723 25.3308 29.3395C25.3297 29.2067 25.355 29.075 25.4053 28.9521C25.4556 28.8292 25.5298 28.7176 25.6237 28.6237C25.7176 28.5298 25.8292 28.4556 25.9521 28.4053C26.075 28.355 26.2067 28.3297 26.3395 28.3308C26.4723 28.332 26.6035 28.3596 26.7255 28.412C26.8475 28.4644 26.9579 28.5406 27.0501 28.6361L32.0001 33.5861L36.9501 28.6361C37.1387 28.4539 37.3913 28.3531 37.6535 28.3554C37.9157 28.3577 38.1665 28.4629 38.3519 28.6483C38.5373 28.8337 38.6425 29.0845 38.6448 29.3467C38.6471 29.6089 38.5463 29.8615 38.3641 30.0501L32.7071 35.7071Z" fill="#100F0F"/>
<path fill-rule="evenodd" clip-rule="evenodd" d="M32.7071 79.7071C32.5196 79.8946 32.2653 79.9999 32.0001 79.9999C31.7349 79.9999 31.4806 79.8946 31.2931 79.7071L25.6361 74.0501C25.5406 73.9579 25.4644 73.8475 25.412 73.7255C25.3596 73.6035 25.332 73.4723 25.3308 73.3395C25.3297 73.2067 25.355 73.075 25.4053 72.9521C25.4556 72.8292 25.5298 72.7176 25.6237 72.6237C25.7176 72.5298 25.8292 72.4556 25.9521 72.4053C26.075 72.355 26.2067 72.3297 26.3395 72.3308C26.4723 72.332 26.6035 72.3596 26.7255 72.412C26.8475 72.4644 26.9579 72.5406 27.0501 72.6361L32.0001 77.5861L36.9501 72.6361C37.1387 72.4539 37.3913 72.3531 37.6535 72.3554C37.9157 72.3577 38.1665 72.4629 38.3519 72.6483C38.5373 72.8337 38.6425 73.0845 38.6448 73.3467C38.6471 73.6089 38.5463 73.8615 38.3641 74.0501L32.7071 79.7071Z" fill="#5A5858" fill-opacity="0.8"/>
<rect x="0.5" y="0.5" width="63" height="107" rx="4.5" stroke="#9747FF" stroke-dasharray="10 5"/>
</svg>
