<svg width="60" height="100" viewBox="0 0 60 100" fill="none" xmlns="http://www.w3.org/2000/svg">
<path d="M25.673 20C25.8587 20 26.0367 20.0737 26.168 20.205C26.2993 20.3363 26.373 20.5143 26.373 20.7V22.009H33.89V20.709C33.89 20.5233 33.9637 20.3453 34.095 20.214C34.2263 20.0827 34.4043 20.009 34.59 20.009C34.7757 20.009 34.9537 20.0827 35.085 20.214C35.2162 20.3453 35.29 20.5233 35.29 20.709V22.009H38C38.5303 22.009 39.0388 22.2196 39.4139 22.5944C39.7889 22.9693 39.9997 23.4777 40 24.008V38.001C39.9997 38.5313 39.7889 39.0397 39.4139 39.4146C39.0388 39.7894 38.5303 40 38 40H22C21.4697 40 20.9612 39.7894 20.5861 39.4146C20.2111 39.0397 20.0003 38.5313 20 38.001V24.008C20.0003 23.4777 20.2111 22.9693 20.5861 22.5944C20.9612 22.2196 21.4697 22.009 22 22.009H24.973V20.699C24.9733 20.5135 25.0471 20.3357 25.1784 20.2047C25.3096 20.0736 25.4875 20 25.673 20ZM21.4 27.742V38.001C21.4 38.0798 21.4155 38.1578 21.4457 38.2306C21.4758 38.3034 21.52 38.3695 21.5757 38.4253C21.6315 38.481 21.6976 38.5252 21.7704 38.5553C21.8432 38.5855 21.9212 38.601 22 38.601H38C38.0788 38.601 38.1568 38.5855 38.2296 38.5553C38.3024 38.5252 38.3685 38.481 38.4243 38.4253C38.48 38.3695 38.5242 38.3034 38.5543 38.2306C38.5845 38.1578 38.6 38.0798 38.6 38.001V27.756L21.4 27.742ZM26.667 34.619V36.285H25V34.619H26.667ZM30.833 34.619V36.285H29.167V34.619H30.833ZM35 34.619V36.285H33.333V34.619H35ZM26.667 30.642V32.308H25V30.642H26.667ZM30.833 30.642V32.308H29.167V30.642H30.833ZM35 30.642V32.308H33.333V30.642H35ZM24.973 23.408H22C21.9212 23.408 21.8432 23.4235 21.7704 23.4537C21.6976 23.4838 21.6315 23.528 21.5757 23.5837C21.52 23.6395 21.4758 23.7056 21.4457 23.7784C21.4155 23.8512 21.4 23.9292 21.4 24.008V26.343L38.6 26.357V24.008C38.6 23.9292 38.5845 23.8512 38.5543 23.7784C38.5242 23.7056 38.48 23.6395 38.4243 23.5837C38.3685 23.528 38.3024 23.4838 38.2296 23.4537C38.1568 23.4235 38.0788 23.408 38 23.408H35.29V24.337C35.29 24.5227 35.2162 24.7007 35.085 24.832C34.9537 24.9633 34.7757 25.037 34.59 25.037C34.4043 25.037 34.2263 24.9633 34.095 24.832C33.9637 24.7007 33.89 24.5227 33.89 24.337V23.408H26.373V24.328C26.373 24.5137 26.2993 24.6917 26.168 24.823C26.0367 24.9543 25.8587 25.028 25.673 25.028C25.4873 25.028 25.3093 24.9543 25.178 24.823C25.0467 24.6917 24.973 24.5137 24.973 24.328V23.408Z" fill="#100F0F"/>
<path d="M25.673 60C25.8587 60 26.0367 60.0737 26.168 60.205C26.2993 60.3363 26.373 60.5143 26.373 60.7V62.009H33.89V60.709C33.89 60.5233 33.9637 60.3453 34.095 60.214C34.2263 60.0827 34.4043 60.009 34.59 60.009C34.7757 60.009 34.9537 60.0827 35.085 60.214C35.2162 60.3453 35.29 60.5233 35.29 60.709V62.009H38C38.5303 62.009 39.0388 62.2196 39.4139 62.5944C39.7889 62.9693 39.9997 63.4777 40 64.008V78.001C39.9997 78.5313 39.7889 79.0397 39.4139 79.4146C39.0388 79.7894 38.5303 80 38 80H22C21.4697 80 20.9612 79.7894 20.5861 79.4146C20.2111 79.0397 20.0003 78.5313 20 78.001V64.008C20.0003 63.4777 20.2111 62.9693 20.5861 62.5944C20.9612 62.2196 21.4697 62.009 22 62.009H24.973V60.699C24.9733 60.5135 25.0471 60.3357 25.1784 60.2047C25.3096 60.0736 25.4875 60 25.673 60ZM21.4 67.742V78.001C21.4 78.0798 21.4155 78.1578 21.4457 78.2306C21.4758 78.3034 21.52 78.3695 21.5757 78.4253C21.6315 78.481 21.6976 78.5252 21.7704 78.5553C21.8432 78.5855 21.9212 78.601 22 78.601H38C38.0788 78.601 38.1568 78.5855 38.2296 78.5553C38.3024 78.5252 38.3685 78.481 38.4243 78.4253C38.48 78.3695 38.5242 78.3034 38.5543 78.2306C38.5845 78.1578 38.6 78.0798 38.6 78.001V67.756L21.4 67.742ZM26.667 74.619V76.285H25V74.619H26.667ZM30.833 74.619V76.285H29.167V74.619H30.833ZM35 74.619V76.285H33.333V74.619H35ZM26.667 70.642V72.308H25V70.642H26.667ZM30.833 70.642V72.308H29.167V70.642H30.833ZM35 70.642V72.308H33.333V70.642H35ZM24.973 63.408H22C21.9212 63.408 21.8432 63.4235 21.7704 63.4537C21.6976 63.4838 21.6315 63.528 21.5757 63.5837C21.52 63.6395 21.4758 63.7056 21.4457 63.7784C21.4155 63.8512 21.4 63.9292 21.4 64.008V66.343L38.6 66.357V64.008C38.6 63.9292 38.5845 63.8512 38.5543 63.7784C38.5242 63.7056 38.48 63.6395 38.4243 63.5837C38.3685 63.528 38.3024 63.4838 38.2296 63.4537C38.1568 63.4235 38.0788 63.408 38 63.408H35.29V64.337C35.29 64.5227 35.2162 64.7007 35.085 64.832C34.9537 64.9633 34.7757 65.037 34.59 65.037C34.4043 65.037 34.2263 64.9633 34.095 64.832C33.9637 64.7007 33.89 64.5227 33.89 64.337V63.408H26.373V64.328C26.373 64.5137 26.2993 64.6917 26.168 64.823C26.0367 64.9543 25.8587 65.028 25.673 65.028C25.4873 65.028 25.3093 64.9543 25.178 64.823C25.0467 64.6917 24.973 64.5137 24.973 64.328V63.408Z" fill="#5A5858" fill-opacity="0.8"/>
<rect x="0.5" y="0.5" width="59" height="99" rx="4.5" stroke="#9747FF" stroke-dasharray="10 5"/>
</svg>
